<?xml version="1.0" encoding="UTF-8" standalone="no"?>
<!DOCTYPE svg PUBLIC "-//W3C//DTD SVG 1.1//EN" "http://www.w3.org/Graphics/SVG/1.1/DTD/svg11.dtd">
<svg version="1.1" xmlns="http://www.w3.org/2000/svg" xmlns:xlink="http://www.w3.org/1999/xlink" preserveAspectRatio="xMidYMid meet" viewBox="0 0 640 640" width="640" height="640"><defs><path d="M640 0C640 0 640 0 640 0C640 384 640 597.33 640 640C640 640 640 640 640 640C256 640 42.67 640 0 640C0 640 0 640 0 640C0 256 0 42.67 0 0C0 0 0 0 0 0C384 0 597.33 0 640 0Z" id="d5B8IHqKG"></path><path d="M245.79 482.54C396.74 482.54 479.3 357.49 479.3 249.04C479.3 245.49 479.3 241.95 479.06 238.43C495.12 226.81 508.98 212.43 520 195.95C505.02 202.59 489.13 206.94 472.86 208.86C490 198.61 502.82 182.48 508.94 163.47C492.83 173.03 475.21 179.77 456.83 183.39C425.75 150.34 373.77 148.75 340.72 179.83C319.4 199.87 310.36 229.74 316.98 258.24C250.99 254.93 189.51 223.77 147.84 172.5C126.06 209.99 137.18 257.97 173.25 282.05C160.19 281.66 147.41 278.14 136 271.78C136 272.11 136 272.46 136 272.82C136.01 311.88 163.55 345.53 201.84 353.26C189.76 356.56 177.08 357.04 164.78 354.67C175.54 388.1 206.35 411 241.46 411.66C212.4 434.5 176.5 446.9 139.54 446.86C133.01 446.85 126.48 446.46 120 445.68C157.53 469.76 201.2 482.54 245.79 482.48" id="bgdUAOD7h"></path></defs><g><g><g><use xlink:href="#d5B8IHqKG" opacity="1" fill="#000000" fill-opacity="0"></use><g><use xlink:href="#d5B8IHqKG" opacity="1" fill-opacity="0" stroke="#000000" stroke-width="1" stroke-opacity="0"></use></g></g><g><use xlink:href="#bgdUAOD7h" opacity="1" fill="#1c95e0" fill-opacity="1"></use><g><use xlink:href="#bgdUAOD7h" opacity="1" fill-opacity="0" stroke="#000000" stroke-width="1" stroke-opacity="0"></use></g></g></g></g></svg>